<svg xmlns="http://www.w3.org/2000/svg" width="858" height="68" fill="none" xmlns:v="https://vecta.io/nano"><style><![CDATA[.B{fill-opacity:.12}.C{fill-opacity:.48}.D{fill-opacity:.74}.E{fill:#73af91}.F{fill:#40c463}.G{fill-opacity:.24}]]></style><rect width="8" height="8" rx="1" class="B E"/><g class="F"><rect y="10" width="8" height="8" rx="1" class="G"/><rect y="20" width="8" height="8" rx="1" class="D"/><rect y="30" width="8" height="8" rx="1" class="C"/></g><g class="E B"><rect y="40" width="8" height="8" rx="1"/><rect y="50" width="8" height="8" rx="1"/><rect y="60" width="8" height="8" rx="1"/><rect x="300" width="8" height="8" rx="1"/></g><g class="F"><rect x="300" y="10" width="8" height="8" rx="1"/><rect x="150" y="50" width="8" height="8" rx="1" class="G"/><rect x="300" y="50" width="8" height="8" rx="1" class="C"/><rect x="300" y="60" width="8" height="8" rx="1" class="C"/></g><rect x="30" width="8" height="8" rx="1" class="B E"/><g class="F"><rect x="30" y="10" width="8" height="8" rx="1"/><rect x="30" y="60" width="8" height="8" rx="1" class="D"/></g><g class="E B"><rect x="330" width="8" height="8" rx="1"/><rect x="360" y="20" width="8" height="8" rx="1"/></g><g class="F"><rect x="330" y="10" width="8" height="8" rx="1" class="C"/><rect x="360" y="30" width="8" height="8" rx="1" class="C"/><rect x="180" y="50" width="8" height="8" rx="1" class="C"/><rect x="330" y="50" width="8" height="8" rx="1"/><rect x="330" y="60" width="8" height="8" rx="1"/></g><rect x="60" width="8" height="8" rx="1" class="B E"/><rect x="60" y="10" width="8" height="8" rx="1" class="C F"/><rect x="60" y="60" width="8" height="8" rx="1" class="B E"/><rect x="360" width="8" height="8" rx="1" class="D F"/><g class="E B"><rect x="360" y="10" width="8" height="8" rx="1"/><rect x="360" y="40" width="8" height="8" rx="1"/></g><rect x="360" y="50" width="8" height="8" rx="1" class="F"/><g class="E B"><rect x="360" y="60" width="8" height="8" rx="1"/><rect x="90" width="8" height="8" rx="1"/></g><g class="F"><rect x="90" y="10" width="8" height="8" rx="1"/><rect x="90" y="60" width="8" height="8" rx="1" class="G"/><rect x="390" width="8" height="8" rx="1" class="C"/><rect x="390" y="10" width="8" height="8" rx="1" class="C"/><rect x="390" y="40" width="8" height="8" rx="1" class="C"/><rect x="390" y="50" width="8" height="8" rx="1" class="C"/></g><rect x="390" y="60" width="8" height="8" rx="1" class="B E"/><g class="F"><rect x="120" width="8" height="8" rx="1"/><rect x="120" y="10" width="8" height="8" rx="1" class="C"/><rect x="120" y="60" width="8" height="8" rx="1" class="G"/></g><g class="E B"><rect x="420" width="8" height="8" rx="1"/><rect x="420" y="10" width="8" height="8" rx="1"/></g><g class="F"><rect x="420" y="40" width="8" height="8" rx="1" class="D"/><rect x="420" y="50" width="8" height="8" rx="1" class="C"/></g><g class="E B"><rect x="420" y="60" width="8" height="8" rx="1"/><rect x="150" width="8" height="8" rx="1"/><rect x="150" y="10" width="8" height="8" rx="1"/><rect x="150" y="60" width="8" height="8" rx="1"/><rect x="450" width="8" height="8" rx="1"/><rect x="450" y="10" width="8" height="8" rx="1"/><rect x="450" y="40" width="8" height="8" rx="1"/></g><g class="F"><rect x="450" y="50" width="8" height="8" rx="1" class="C"/><rect x="450" y="60" width="8" height="8" rx="1" class="C"/><rect x="620" width="8" height="8" rx="1" class="D"/></g><g class="E B"><rect x="620" y="10" width="8" height="8" rx="1"/><rect x="620" y="40" width="8" height="8" rx="1"/></g><g class="F"><rect x="620" y="50" width="8" height="8" rx="1" class="D"/><rect x="620" y="60" width="8" height="8" rx="1" class="C"/><rect x="180" width="8" height="8" rx="1" class="D"/><rect x="180" y="10" width="8" height="8" rx="1"/></g><rect x="30" y="50" width="8" height="8" rx="1" class="B E"/><g class="F"><rect x="180" y="50" width="8" height="8" rx="1" class="D"/><rect x="180" y="60" width="8" height="8" rx="1"/><rect x="480" width="8" height="8" rx="1" class="C"/><rect x="480" y="10" width="8" height="8" rx="1" class="C"/><rect x="480" y="40" width="8" height="8" rx="1" class="C"/></g><rect x="480" y="50" width="8" height="8" rx="1" class="B E"/><rect x="480" y="60" width="8" height="8" rx="1" class="C F"/><g class="E B"><rect x="650" width="8" height="8" rx="1"/><rect x="650" y="10" width="8" height="8" rx="1"/></g><g class="F"><rect x="650" y="20" width="8" height="8" rx="1"/><rect x="510" y="20" width="8" height="8" rx="1"/><rect x="650" y="30" width="8" height="8" rx="1"/><rect x="510" y="30" width="8" height="8" rx="1"/></g><rect x="650" y="40" width="8" height="8" rx="1" class="B E"/><g class="F"><rect x="650" y="50" width="8" height="8" rx="1" class="C"/><rect x="650" y="60" width="8" height="8" rx="1" class="G"/></g><rect x="210" width="8" height="8" rx="1" class="B E"/><g class="F"><rect x="210" y="10" width="8" height="8" rx="1" class="D"/><rect x="60" y="50" width="8" height="8" rx="1" class="G"/><rect x="210" y="50" width="8" height="8" rx="1" class="C"/><rect x="210" y="60" width="8" height="8" rx="1" class="C"/><rect x="510" width="8" height="8" rx="1"/></g><rect x="510" y="10" width="8" height="8" rx="1" class="B E"/><g class="F"><rect x="510" y="40" width="8" height="8" rx="1" class="D"/><rect x="510" y="50" width="8" height="8" rx="1"/><rect x="510" y="60" width="8" height="8" rx="1" class="D"/></g><rect x="680" width="8" height="8" rx="1" class="B E"/><g class="F"><rect x="680" y="10" width="8" height="8" rx="1" class="D"/><rect x="680" y="20" width="8" height="8" rx="1" class="G"/><rect x="680" y="30" width="8" height="8" rx="1"/><rect x="680" y="40" width="8" height="8" rx="1" class="D"/></g><g class="E B"><rect x="680" y="50" width="8" height="8" rx="1"/><rect x="680" y="60" width="8" height="8" rx="1"/></g><g class="F"><rect x="770" width="8" height="8" rx="1" class="G"/><rect x="770" y="10" width="8" height="8" rx="1" class="C"/><rect x="770" y="20" width="8" height="8" rx="1" class="D"/><rect x="770" y="30" width="8" height="8" rx="1"/><rect x="770" y="40" width="8" height="8" rx="1" class="C"/><rect x="240" width="8" height="8" rx="1" class="D"/></g><rect x="240" y="10" width="8" height="8" rx="1" class="B E"/><g class="F"><rect x="90" y="50" width="8" height="8" rx="1" class="D"/><rect x="240" y="50" width="8" height="8" rx="1" class="G"/><rect x="240" y="60" width="8" height="8" rx="1"/><rect x="540" width="8" height="8" rx="1" class="D"/><rect x="540" y="10" width="8" height="8" rx="1" class="D"/><rect x="540" y="40" width="8" height="8" rx="1" class="D"/><rect x="540" y="50" width="8" height="8" rx="1" class="C"/><rect x="540" y="60" width="8" height="8" rx="1"/><rect x="710" width="8" height="8" rx="1" class="D"/><rect x="710" y="10" width="8" height="8" rx="1"/><rect x="710" y="20" width="8" height="8" rx="1" class="C"/><rect x="710" y="30" width="8" height="8" rx="1"/><rect x="710" y="40" width="8" height="8" rx="1" class="C"/></g><rect x="710" y="50" width="8" height="8" rx="1" class="B E"/><g class="F"><rect x="710" y="60" width="8" height="8" rx="1"/><rect x="800" width="8" height="8" rx="1" class="G"/></g><g class="E B"><rect x="800" y="10" width="8" height="8" rx="1"/><rect x="800" y="20" width="8" height="8" rx="1"/></g><g class="F"><rect x="800" y="30" width="8" height="8" rx="1" class="G"/><rect x="800" y="40" width="8" height="8" rx="1"/><rect x="270" width="8" height="8" rx="1" class="G"/><rect x="270" y="10" width="8" height="8" rx="1" class="C"/></g><g class="E B"><rect x="120" y="50" width="8" height="8" rx="1"/><rect x="270" y="50" width="8" height="8" rx="1"/></g><rect x="270" y="60" width="8" height="8" rx="1" class="C F"/><rect x="570" width="8" height="8" rx="1" class="B E"/><rect x="570" y="10" width="8" height="8" rx="1" class="D F"/><g class="E B"><rect x="570" y="40" width="8" height="8" rx="1"/><rect x="570" y="50" width="8" height="8" rx="1"/><rect x="570" y="60" width="8" height="8" rx="1"/><rect x="740" width="8" height="8" rx="1"/><rect x="740" y="10" width="8" height="8" rx="1"/></g><rect x="740" y="20" width="8" height="8" rx="1" class="C F"/><g class="E B"><rect x="740" y="30" width="8" height="8" rx="1"/><rect x="740" y="40" width="8" height="8" rx="1"/><rect x="830" width="8" height="8" rx="1"/><rect x="830" y="10" width="8" height="8" rx="1"/></g><rect x="830" y="20" width="8" height="8" rx="1" class="C F"/><rect x="830" y="30" width="8" height="8" rx="1" class="B E"/><rect x="830" y="40" width="8" height="8" rx="1" class="F G"/><g class="E B"><rect x="10" width="8" height="8" rx="1"/><rect x="10" y="10" width="8" height="8" rx="1"/></g><g class="F"><rect x="10" y="20" width="8" height="8" rx="1"/><rect x="10" y="30" width="8" height="8" rx="1" class="D"/><use href="#B" class="C"/><use href="#B" y="10" class="G"/><rect x="10" y="60" width="8" height="8" rx="1"/><rect x="310" width="8" height="8" rx="1" class="G"/><rect x="340" y="40" width="8" height="8" rx="1" class="G"/><rect x="310" y="10" width="8" height="8" rx="1" class="D"/><rect x="350" y="40" width="8" height="8" rx="1" class="D"/></g><g class="E B"><rect x="160" y="50" width="8" height="8" rx="1"/><rect x="310" y="50" width="8" height="8" rx="1"/></g><g class="F"><rect x="310" y="60" width="8" height="8" rx="1" class="D"/><rect x="40" width="8" height="8" rx="1" class="C"/></g><g class="E B"><rect x="40" y="10" width="8" height="8" rx="1"/><rect x="40" y="60" width="8" height="8" rx="1"/></g><g class="F"><rect x="340" width="8" height="8" rx="1" class="G"/><rect x="370" y="20" width="8" height="8" rx="1" class="G"/><rect x="340" y="10" width="8" height="8" rx="1" class="G"/><rect x="370" y="30" width="8" height="8" rx="1" class="G"/><rect x="190" y="50" width="8" height="8" rx="1" class="C"/><rect x="340" y="50" width="8" height="8" rx="1" class="C"/><rect x="340" y="60" width="8" height="8" rx="1" class="C"/><rect x="70" width="8" height="8" rx="1"/><rect x="30" y="40" width="8" height="8" rx="1"/><rect x="70" y="10" width="8" height="8" rx="1" class="G"/></g><rect x="70" y="60" width="8" height="8" rx="1" class="B E"/><g class="F"><rect x="370" width="8" height="8" rx="1" class="C"/><rect x="370" y="10" width="8" height="8" rx="1" class="G"/><rect x="370" y="40" width="8" height="8" rx="1" class="C"/></g><rect x="370" y="50" width="8" height="8" rx="1" class="B E"/><g class="F C"><rect x="370" y="60" width="8" height="8" rx="1"/><rect x="100" width="8" height="8" rx="1"/></g><use href="#B" x="90" y="-30" class="B E"/><rect x="100" y="60" width="8" height="8" rx="1" class="C F"/><g class="E B"><rect x="400" width="8" height="8" rx="1"/><rect x="400" y="10" width="8" height="8" rx="1"/><rect x="400" y="40" width="8" height="8" rx="1"/></g><g class="F C"><rect x="400" y="50" width="8" height="8" rx="1"/><rect x="400" y="60" width="8" height="8" rx="1"/></g><rect x="130" width="8" height="8" rx="1" class="B E"/><rect x="130" y="10" width="8" height="8" rx="1" class="F G"/><rect x="130" y="60" width="8" height="8" rx="1" class="B E"/><g class="F"><rect x="430" width="8" height="8" rx="1" class="D"/><rect x="430" y="10" width="8" height="8" rx="1" class="C"/><rect x="430" y="40" width="8" height="8" rx="1" class="C"/><rect x="430" y="50" width="8" height="8" rx="1" class="C"/></g><g class="E B"><rect x="430" y="60" width="8" height="8" rx="1"/><rect x="600" width="8" height="8" rx="1"/></g><g class="F"><rect x="600" y="10" width="8" height="8" rx="1" class="D"/><rect x="600" y="40" width="8" height="8" rx="1" class="C"/><rect x="600" y="50" width="8" height="8" rx="1" class="G"/><rect x="600" y="60" width="8" height="8" rx="1" class="G"/><rect x="160" width="8" height="8" rx="1" class="C"/><rect x="160" y="10" width="8" height="8" rx="1" class="C"/></g><rect x="160" y="60" width="8" height="8" rx="1" class="B E"/><g class="F"><rect x="460" width="8" height="8" rx="1"/><rect x="460" y="10" width="8" height="8" rx="1" class="D"/><rect x="460" y="40" width="8" height="8" rx="1" class="G"/><rect x="460" y="50" width="8" height="8" rx="1"/></g><rect x="460" y="60" width="8" height="8" rx="1" class="B E"/><g class="F"><rect x="630" width="8" height="8" rx="1"/><rect x="630" y="10" width="8" height="8" rx="1"/></g><g class="E B"><rect x="630" y="40" width="8" height="8" rx="1"/><rect x="630" y="50" width="8" height="8" rx="1"/><rect x="630" y="60" width="8" height="8" rx="1"/></g><g class="F G"><rect x="190" width="8" height="8" rx="1"/><rect x="190" y="10" width="8" height="8" rx="1"/><rect x="40" y="50" width="8" height="8" rx="1"/><rect x="30" y="20" width="8" height="8" rx="1"/></g><g class="E B"><rect x="190" y="50" width="8" height="8" rx="1"/><rect x="190" y="60" width="8" height="8" rx="1"/></g><g class="F"><rect x="490" width="8" height="8" rx="1" class="D"/><rect x="490" y="10" width="8" height="8" rx="1" class="D"/><rect x="490" y="40" width="8" height="8" rx="1" class="D"/><rect x="490" y="50" width="8" height="8" rx="1"/><rect x="490" y="60" width="8" height="8" rx="1"/><rect x="660" width="8" height="8" rx="1" class="D"/><rect x="660" y="10" width="8" height="8" rx="1"/><rect x="660" y="20" width="8" height="8" rx="1" class="G"/><rect x="660" y="30" width="8" height="8" rx="1"/><rect x="660" y="40" width="8" height="8" rx="1" class="D"/><rect x="660" y="50" width="8" height="8" rx="1" class="G"/><rect x="660" y="60" width="8" height="8" rx="1" class="G"/></g><rect x="220" width="8" height="8" rx="1" class="B E"/><g class="F"><rect x="220" y="10" width="8" height="8" rx="1" class="G"/><rect x="70" y="50" width="8" height="8" rx="1" class="C"/><rect x="220" y="50" width="8" height="8" rx="1" class="D"/></g><g class="E B"><rect x="220" y="60" width="8" height="8" rx="1"/><rect x="520" width="8" height="8" rx="1"/></g><g class="F"><rect x="520" y="10" width="8" height="8" rx="1"/><rect x="520" y="40" width="8" height="8" rx="1" class="D"/><rect x="520" y="50" width="8" height="8" rx="1" class="G"/><rect x="520" y="60" width="8" height="8" rx="1"/><rect x="690" width="8" height="8" rx="1"/><rect x="690" y="10" width="8" height="8" rx="1" class="C"/><rect x="690" y="20" width="8" height="8" rx="1"/><rect x="690" y="30" width="8" height="8" rx="1" class="C"/></g><rect x="690" y="40" width="8" height="8" rx="1" class="B E"/><g class="F"><rect x="690" y="50" width="8" height="8" rx="1" class="C"/><rect x="690" y="60" width="8" height="8" rx="1" class="C"/><rect x="780" width="8" height="8" rx="1" class="G"/><rect x="780" y="10" width="8" height="8" rx="1" class="G"/><rect x="780" y="20" width="8" height="8" rx="1" class="G"/><rect x="780" y="30" width="8" height="8" rx="1" class="D"/><rect x="780" y="40" width="8" height="8" rx="1" class="C"/><rect x="250" width="8" height="8" rx="1" class="C"/><rect x="250" y="10" width="8" height="8" rx="1"/><rect x="100" y="50" width="8" height="8" rx="1" class="C"/><rect x="250" y="50" width="8" height="8" rx="1" class="G"/><rect x="250" y="60" width="8" height="8" rx="1" class="G"/></g><g class="E B"><rect x="550" width="8" height="8" rx="1"/><rect x="550" y="10" width="8" height="8" rx="1"/><rect x="550" y="40" width="8" height="8" rx="1"/></g><rect x="550" y="50" width="8" height="8" rx="1" class="D F"/><rect x="550" y="60" width="8" height="8" rx="1" class="B E"/><g class="F"><rect x="720" width="8" height="8" rx="1"/><rect x="720" y="10" width="8" height="8" rx="1" class="D"/><rect x="720" y="20" width="8" height="8" rx="1"/><rect x="720" y="30" width="8" height="8" rx="1" class="C"/></g><rect x="720" y="40" width="8" height="8" rx="1" class="B E"/><rect x="720" y="50" width="8" height="8" rx="1" class="D F"/><rect x="720" y="60" width="8" height="8" rx="1" class="B E"/><g class="F"><rect x="810" width="8" height="8" rx="1" class="D"/><rect x="810" y="10" width="8" height="8" rx="1" class="C"/><rect x="810" y="20" width="8" height="8" rx="1"/><rect x="810" y="30" width="8" height="8" rx="1" class="D"/><rect x="810" y="40" width="8" height="8" rx="1" class="C"/><rect x="280" width="8" height="8" rx="1" class="C"/><rect x="280" y="10" width="8" height="8" rx="1"/></g><rect x="130" y="50" width="8" height="8" rx="1" class="B E"/><g class="F G"><rect x="280" y="50" width="8" height="8" rx="1"/><rect x="280" y="60" width="8" height="8" rx="1"/></g><g class="E B"><rect x="580" width="8" height="8" rx="1"/><rect x="580" y="10" width="8" height="8" rx="1"/></g><g class="F"><rect x="580" y="40" width="8" height="8" rx="1"/><rect x="580" y="50" width="8" height="8" rx="1"/><rect x="580" y="60" width="8" height="8" rx="1" class="G"/><rect x="750" width="8" height="8" rx="1"/><rect x="750" y="10" width="8" height="8" rx="1" class="D"/><rect x="750" y="20" width="8" height="8" rx="1" class="C"/><rect x="750" y="30" width="8" height="8" rx="1" class="G"/></g><rect x="750" y="40" width="8" height="8" rx="1" class="B E"/><g class="F"><rect x="840" width="8" height="8" rx="1" class="C"/><rect x="840" y="10" width="8" height="8" rx="1"/><rect x="840" y="20" width="8" height="8" rx="1" class="D"/><rect x="840" y="30" width="8" height="8" rx="1" class="D"/><rect x="840" y="40" width="8" height="8" rx="1" class="C"/><rect x="20" width="8" height="8" rx="1" class="G"/><rect x="20" y="10" width="8" height="8" rx="1" class="D"/><rect x="20" y="20" width="8" height="8" rx="1" class="D"/><rect x="20" y="30" width="8" height="8" rx="1" class="C"/><rect x="20" y="40" width="8" height="8" rx="1" class="G"/></g><rect x="20" y="50" width="8" height="8" rx="1" class="B E"/><rect x="20" y="60" width="8" height="8" rx="1" class="F G"/><g class="E B"><rect x="320" width="8" height="8" rx="1"/><rect x="350" y="20" width="8" height="8" rx="1"/></g><g class="F C"><rect x="320" y="10" width="8" height="8" rx="1"/><rect x="350" y="30" width="8" height="8" rx="1"/></g><g class="E B"><rect x="170" y="50" width="8" height="8" rx="1"/><rect x="320" y="50" width="8" height="8" rx="1"/></g><rect x="320" y="60" width="8" height="8" rx="1" class="C F"/><g class="E B"><rect x="50" width="8" height="8" rx="1"/><rect x="50" y="10" width="8" height="8" rx="1"/><rect x="30" y="30" width="8" height="8" rx="1"/></g><g class="F"><rect x="50" y="60" width="8" height="8" rx="1" class="D"/><rect x="350" width="8" height="8" rx="1" class="D"/><rect x="350" y="10" width="8" height="8" rx="1"/><rect x="200" y="50" width="8" height="8" rx="1" class="G"/></g><g class="E B"><rect x="350" y="50" width="8" height="8" rx="1"/><rect x="350" y="60" width="8" height="8" rx="1"/></g><g class="F"><rect x="80" width="8" height="8" rx="1" class="G"/><rect x="80" y="10" width="8" height="8" rx="1" class="D"/></g><g class="E B"><rect x="80" y="60" width="8" height="8" rx="1"/><rect x="380" width="8" height="8" rx="1"/><rect x="380" y="10" width="8" height="8" rx="1"/></g><g class="F"><rect x="380" y="40" width="8" height="8" rx="1" class="G"/><rect x="380" y="50" width="8" height="8" rx="1"/></g><g class="E B"><rect x="380" y="60" width="8" height="8" rx="1"/><rect x="110" width="8" height="8" rx="1"/></g><g class="F D"><rect x="110" y="10" width="8" height="8" rx="1"/><rect x="110" y="60" width="8" height="8" rx="1"/></g><rect x="410" width="8" height="8" rx="1" class="B E"/><g class="F"><rect x="410" y="10" width="8" height="8" rx="1" class="C"/><rect x="410" y="40" width="8" height="8" rx="1" class="G"/><rect x="410" y="50" width="8" height="8" rx="1" class="D"/><rect x="410" y="60" width="8" height="8" rx="1"/><rect x="140" width="8" height="8" rx="1" class="D"/><rect x="140" y="10" width="8" height="8" rx="1" class="D"/><rect x="140" y="60" width="8" height="8" rx="1" class="D"/><rect x="440" width="8" height="8" rx="1"/><rect x="440" y="10" width="8" height="8" rx="1" class="C"/><rect x="440" y="40" width="8" height="8" rx="1"/><rect x="440" y="50" width="8" height="8" rx="1" class="G"/><rect x="440" y="60" width="8" height="8" rx="1" class="D"/><rect x="610" width="8" height="8" rx="1"/><rect x="610" y="10" width="8" height="8" rx="1" class="C"/><rect x="610" y="40" width="8" height="8" rx="1" class="G"/><rect x="610" y="50" width="8" height="8" rx="1" class="C"/><rect x="610" y="60" width="8" height="8" rx="1" class="D"/><rect x="170" width="8" height="8" rx="1" class="C"/><rect x="170" y="10" width="8" height="8" rx="1"/></g><rect x="170" y="60" width="8" height="8" rx="1" class="B E"/><rect x="470" width="8" height="8" rx="1" class="F"/><rect x="470" y="10" width="8" height="8" rx="1" class="B E"/><g class="F"><rect x="470" y="40" width="8" height="8" rx="1" class="D"/><rect x="470" y="50" width="8" height="8" rx="1" class="D"/><rect x="470" y="60" width="8" height="8" rx="1" class="D"/><rect x="640" width="8" height="8" rx="1" class="C"/><rect x="640" y="10" width="8" height="8" rx="1" class="C"/><rect x="640" y="40" width="8" height="8" rx="1"/><rect x="640" y="50" width="8" height="8" rx="1" class="G"/><rect x="640" y="60" width="8" height="8" rx="1" class="C"/><rect x="200" width="8" height="8" rx="1" class="G"/><rect x="200" y="10" width="8" height="8" rx="1"/><rect x="50" y="50" width="8" height="8" rx="1" class="G"/><rect x="200" y="50" width="8" height="8" rx="1"/><rect x="200" y="60" width="8" height="8" rx="1" class="D"/></g><rect x="500" width="8" height="8" rx="1" class="B E"/><rect x="500" y="10" width="8" height="8" rx="1" class="F"/><rect x="500" y="40" width="8" height="8" rx="1" class="B E"/><g class="F"><rect x="500" y="50" width="8" height="8" rx="1" class="D"/><rect x="500" y="60" width="8" height="8" rx="1" class="G"/><rect x="670" width="8" height="8" rx="1" class="D"/><rect x="670" y="10" width="8" height="8" rx="1" class="C"/><rect x="670" y="20" width="8" height="8" rx="1"/><rect x="670" y="30" width="8" height="8" rx="1" class="D"/><rect x="670" y="40" width="8" height="8" rx="1" class="D"/><rect x="670" y="50" width="8" height="8" rx="1" class="G"/></g><g class="E B"><rect x="670" y="60" width="8" height="8" rx="1"/><rect x="230" width="8" height="8" rx="1"/><rect x="230" y="10" width="8" height="8" rx="1"/><rect x="80" y="50" width="8" height="8" rx="1"/></g><g class="F"><rect x="230" y="50" width="8" height="8" rx="1" class="C"/><rect x="230" y="60" width="8" height="8" rx="1" class="C"/><rect x="530" width="8" height="8" rx="1"/></g><rect x="530" y="10" width="8" height="8" rx="1" class="B E"/><g class="F"><rect x="530" y="40" width="8" height="8" rx="1"/><rect x="530" y="50" width="8" height="8" rx="1"/></g><g class="E B"><rect x="530" y="60" width="8" height="8" rx="1"/><rect x="700" width="8" height="8" rx="1"/></g><rect x="700" y="10" width="8" height="8" rx="1" class="C F"/><rect x="700" y="20" width="8" height="8" rx="1" class="B E"/><g class="F"><rect x="700" y="30" width="8" height="8" rx="1" class="C"/><rect x="700" y="40" width="8" height="8" rx="1" class="D"/><rect x="700" y="50" width="8" height="8" rx="1" class="C"/><rect x="700" y="60" width="8" height="8" rx="1" class="D"/></g><rect x="790" width="8" height="8" rx="1" class="B E"/><g class="F"><rect x="790" y="10" width="8" height="8" rx="1" class="G"/><rect x="790" y="20" width="8" height="8" rx="1" class="D"/><rect x="790" y="30" width="8" height="8" rx="1"/><rect x="790" y="40" width="8" height="8" rx="1" class="G"/><rect x="260" width="8" height="8" rx="1" class="C"/><rect x="260" y="10" width="8" height="8" rx="1" class="G"/></g><rect x="110" y="50" width="8" height="8" rx="1" class="B E"/><g class="F"><rect x="260" y="50" width="8" height="8" rx="1" class="C"/><rect x="260" y="60" width="8" height="8" rx="1"/></g><rect x="560" width="8" height="8" rx="1" class="B E"/><rect x="560" y="10" width="8" height="8" rx="1" class="F"/><rect x="560" y="40" width="8" height="8" rx="1" class="B E"/><g class="F"><rect x="560" y="50" width="8" height="8" rx="1" class="D"/><rect x="560" y="60" width="8" height="8" rx="1"/></g><rect x="730" width="8" height="8" rx="1" class="B E"/><g class="F"><rect x="730" y="10" width="8" height="8" rx="1"/><rect x="730" y="20" width="8" height="8" rx="1" class="D"/></g><g class="E B"><rect x="730" y="30" width="8" height="8" rx="1"/><rect x="730" y="40" width="8" height="8" rx="1"/><rect x="730" y="50" width="8" height="8" rx="1"/><rect x="730" y="60" width="8" height="8" rx="1"/></g><rect x="820" width="8" height="8" rx="1" class="C F"/><g class="E B"><rect x="820" y="10" width="8" height="8" rx="1"/><rect x="820" y="20" width="8" height="8" rx="1"/></g><g class="F"><rect x="820" y="30" width="8" height="8" rx="1" class="C"/><rect x="820" y="40" width="8" height="8" rx="1" class="G"/><rect x="290" width="8" height="8" rx="1" class="D"/><rect x="290" y="10" width="8" height="8" rx="1" class="G"/><rect x="140" y="50" width="8" height="8" rx="1" class="G"/><rect x="290" y="50" width="8" height="8" rx="1" class="D"/><rect x="290" y="60" width="8" height="8" rx="1"/></g><rect x="590" width="8" height="8" rx="1" class="B E"/><g class="F"><rect x="590" y="10" width="8" height="8" rx="1" class="C"/><rect x="630" y="20" width="8" height="8" rx="1" class="C"/><rect x="490" y="20" width="8" height="8" rx="1" class="C"/><rect x="630" y="30" width="8" height="8" rx="1"/><rect x="490" y="30" width="8" height="8" rx="1"/></g><g class="E B"><rect x="640" y="20" width="8" height="8" rx="1"/><rect x="500" y="20" width="8" height="8" rx="1"/></g><g class="F"><rect x="640" y="30" width="8" height="8" rx="1" class="C"/><rect x="500" y="30" width="8" height="8" rx="1" class="C"/><rect x="620" y="20" width="8" height="8" rx="1"/><rect x="480" y="20" width="8" height="8" rx="1"/></g><g class="E B"><rect x="620" y="30" width="8" height="8" rx="1"/><rect x="480" y="30" width="8" height="8" rx="1"/></g><g class="F"><rect x="540" y="20" width="8" height="8" rx="1"/><rect x="400" y="20" width="8" height="8" rx="1"/><rect x="540" y="30" width="8" height="8" rx="1" class="D"/><rect x="400" y="30" width="8" height="8" rx="1" class="D"/><rect x="570" y="20" width="8" height="8" rx="1" class="D"/><rect x="430" y="20" width="8" height="8" rx="1" class="D"/><rect x="570" y="30" width="8" height="8" rx="1" class="G"/><rect x="430" y="30" width="8" height="8" rx="1" class="G"/><rect x="600" y="20" width="8" height="8" rx="1" class="C"/><rect x="460" y="20" width="8" height="8" rx="1" class="C"/><rect x="600" y="30" width="8" height="8" rx="1" class="C"/><rect x="460" y="30" width="8" height="8" rx="1" class="C"/><rect x="520" y="20" width="8" height="8" rx="1" class="G"/><rect x="380" y="20" width="8" height="8" rx="1" class="G"/><rect x="520" y="30" width="8" height="8" rx="1" class="D"/><rect x="380" y="30" width="8" height="8" rx="1" class="D"/></g><g class="E B"><rect x="550" y="20" width="8" height="8" rx="1"/><rect x="410" y="20" width="8" height="8" rx="1"/><rect x="550" y="30" width="8" height="8" rx="1"/><rect x="410" y="30" width="8" height="8" rx="1"/><rect x="580" y="20" width="8" height="8" rx="1"/><rect x="440" y="20" width="8" height="8" rx="1"/></g><g class="F"><rect x="580" y="30" width="8" height="8" rx="1"/><rect x="440" y="30" width="8" height="8" rx="1"/><rect x="610" y="20" width="8" height="8" rx="1" class="D"/><rect x="470" y="20" width="8" height="8" rx="1" class="D"/><rect x="610" y="30" width="8" height="8" rx="1" class="C"/><rect x="470" y="30" width="8" height="8" rx="1" class="C"/><rect x="530" y="20" width="8" height="8" rx="1" class="D"/><rect x="390" y="20" width="8" height="8" rx="1" class="D"/></g><g class="E B"><rect x="530" y="30" width="8" height="8" rx="1"/><rect x="390" y="30" width="8" height="8" rx="1"/><rect x="560" y="20" width="8" height="8" rx="1"/><rect x="420" y="20" width="8" height="8" rx="1"/></g><g class="F"><rect x="560" y="30" width="8" height="8" rx="1" class="D"/><rect x="420" y="30" width="8" height="8" rx="1" class="D"/><rect x="590" y="20" width="8" height="8" rx="1" class="D"/><rect x="450" y="20" width="8" height="8" rx="1" class="D"/><rect x="590" y="30" width="8" height="8" rx="1" class="D"/><rect x="450" y="30" width="8" height="8" rx="1" class="D"/><rect x="590" y="40" width="8" height="8" rx="1" class="C"/><rect x="590" y="50" width="8" height="8" rx="1"/><rect x="590" y="60" width="8" height="8" rx="1" class="G"/><rect x="760" width="8" height="8" rx="1" class="C"/><rect x="760" y="10" width="8" height="8" rx="1" class="C"/></g><g class="E B"><rect x="760" y="20" width="8" height="8" rx="1"/><rect x="760" y="30" width="8" height="8" rx="1"/></g><rect x="760" y="40" width="8" height="8" rx="1" class="F G"/><rect x="850" width="8" height="8" rx="1" class="B E"/><g class="F"><rect x="850" y="10" width="8" height="8" rx="1" class="G"/><rect x="850" y="20" width="8" height="8" rx="1" class="D"/><rect x="850" y="30" width="8" height="8" rx="1" class="G"/></g><rect x="850" y="40" width="8" height="8" rx="1" class="B E"/><path d="M748.543 57.091h1.362v5.152c0 .379-.075.686-.224.921a1.29 1.29 0 0 1-.642.514c-.277.109-.609.163-.994.163-.047 0-.092-.001-.134-.003a3.3 3.3 0 0 1-.141-.003V62.77l.096.003.083.003c.219 0 .373-.047.46-.141s.134-.23.134-.416v-5.13zm.678-.633c-.2 0-.373-.067-.518-.201s-.217-.299-.217-.489.072-.348.217-.483a.73.73 0 0 1 .518-.205c.204 0 .378.068.521.205s.217.295.217.483a.65.65 0 0 1-.217.489.73.73 0 0 1-.521.201zm14.923 3.452v-2.819h1.361V62h-1.307v-.892h-.051a1.45 1.45 0 0 1-.553.694c-.256.175-.568.262-.937.262-.328 0-.616-.075-.866-.224s-.444-.361-.585-.636-.208-.604-.211-.988V57.09h1.362v2.883c.002.29.08.519.233.687s.359.253.617.253a.97.97 0 0 0 .46-.112.88.88 0 0 0 .346-.339c.088-.149.133-.333.131-.553zm16.535-1.419l-1.247.077c-.021-.107-.067-.202-.137-.288a.74.74 0 0 0-.278-.208.99.99 0 0 0-.406-.08c-.211 0-.389.045-.534.134s-.217.205-.217.352a.38.38 0 0 0 .14.297c.094.081.255.146.483.195l.888.179c.478.098.834.256 1.068.473s.351.503.351.857c0 .322-.094.604-.284.847s-.445.433-.773.569a2.92 2.92 0 0 1-1.129.201c-.649 0-1.167-.135-1.553-.406a1.58 1.58 0 0 1-.674-1.112l1.339-.07c.04.198.138.349.294.454s.355.153.598.153.43-.046.575-.137.221-.214.224-.361a.38.38 0 0 0-.157-.304c-.102-.081-.26-.143-.473-.185l-.85-.169c-.48-.096-.836-.262-1.071-.498s-.348-.538-.348-.905c0-.315.085-.587.255-.815s.415-.404.726-.527a2.99 2.99 0 0 1 1.099-.185c.62 0 1.108.131 1.464.393a1.52 1.52 0 0 1 .627 1.071zm13.58-1.4v1.023h-2.956v-1.023h2.956zm-2.285-1.176h1.361v4.577a.61.61 0 0 0 .058.294.31.31 0 0 0 .16.144c.069.028.151.042.243.042a1.16 1.16 0 0 0 .191-.016l.147-.029.214 1.013c-.068.021-.164.046-.287.073a2.51 2.51 0 0 1-.451.054c-.328.013-.616-.031-.863-.131s-.435-.256-.572-.467-.203-.477-.201-.799v-4.756zm15.783 1.176v1.023h-2.956v-1.023h2.956zm-2.285-1.176h1.361v4.577c0 .126.02.224.058.294a.31.31 0 0 0 .16.144c.068.028.151.042.243.042a1.15 1.15 0 0 0 .191-.016l.147-.029.215 1.013-.288.073c-.124.03-.274.048-.451.054-.328.013-.616-.031-.863-.131s-.435-.256-.572-.467-.203-.477-.201-.799v-4.756zM819.612 62l-1.336-4.909h1.378l.761 3.298h.044l.793-3.298h1.352l.805 3.279h.042l.748-3.279h1.374L824.24 62h-1.441l-.844-3.087h-.061L821.051 62h-1.439zm16.687 0v-4.909h1.362V62h-1.362zm.684-5.542a.74.74 0 0 1-.521-.201.65.65 0 0 1-.214-.489.64.64 0 0 1 .214-.483c.143-.135.319-.205.521-.205a.72.72 0 0 1 .518.205c.145.134.217.295.217.483a.65.65 0 0 1-.217.489.73.73 0 0 1-.518.201zm13.986 5.638c-.502 0-.935-.107-1.297-.32a2.16 2.16 0 0 1-.831-.895c-.192-.381-.288-.82-.288-1.317 0-.503.097-.944.291-1.323a2.16 2.16 0 0 1 .834-.892c.36-.215.789-.323 1.285-.323.428 0 .803.078 1.125.233a1.88 1.88 0 0 1 .764.655c.187.281.291.611.31.991h-1.285c-.036-.245-.132-.442-.288-.591s-.354-.227-.604-.227c-.211 0-.395.058-.553.173s-.277.278-.364.495-.131.48-.131.789.043.58.128.799a1.11 1.11 0 0 0 .367.502c.158.115.342.173.553.173.156 0 .295-.032.419-.096s.229-.157.31-.278.137-.272.163-.444h1.285c-.021.375-.124.705-.307.991a1.85 1.85 0 0 1-.751.665c-.32.16-.698.24-1.135.24zM51.63 26.273h4.084v15.456c0 1.138-.224 2.058-.671 2.761s-1.09 1.218-1.927 1.544c-.831.326-1.825.489-2.982.489a8.07 8.07 0 0 1-.403-.01 9.87 9.87 0 0 1-.422-.01V43.31l.288.01.249.01c.658 0 1.119-.141 1.381-.422.268-.275.403-.69.403-1.246V26.273zm2.033-1.898c-.601 0-1.119-.201-1.553-.604-.435-.409-.652-.898-.652-1.467 0-.562.217-1.045.652-1.448a2.19 2.19 0 0 1 1.553-.614c.614 0 1.135.205 1.563.614.435.403.652.885.652 1.448 0 .569-.217 1.058-.652 1.467-.428.403-.949.604-1.563.604zM94.431 34.73v-8.457h4.084V41h-3.921v-2.675h-.153c-.332.863-.885 1.556-1.659 2.081-.767.524-1.703.786-2.809.786-.984 0-1.85-.224-2.598-.671s-1.333-1.084-1.755-1.908c-.416-.825-.626-1.812-.633-2.963v-9.377h4.084v8.648c.006.869.24 1.556.7 2.061s1.077.758 1.85.758a2.94 2.94 0 0 0 1.381-.336c.428-.23.773-.569 1.036-1.016s.4-1 .393-1.659zm45.605-4.257l-3.739.23c-.064-.32-.202-.607-.413-.863a2.19 2.19 0 0 0-.834-.623c-.339-.16-.745-.24-1.218-.24-.632 0-1.166.134-1.601.403-.434.262-.652.614-.652 1.055 0 .352.141.649.422.892s.764.438 1.448.585l2.665.537c1.432.294 2.5.767 3.203 1.419s1.054 1.508 1.054 2.57a4.01 4.01 0 0 1-.853 2.541c-.562.729-1.336 1.298-2.32 1.707-.978.403-2.106.604-3.385.604-1.949 0-3.503-.406-4.66-1.218a4.74 4.74 0 0 1-2.023-3.337l4.018-.211c.121.594.415 1.048.882 1.361.466.307 1.064.46 1.793.46.716 0 1.291-.137 1.726-.412.441-.281.664-.642.671-1.083-.007-.371-.163-.674-.47-.911-.307-.243-.78-.428-1.419-.556l-2.55-.508c-1.439-.288-2.509-.786-3.212-1.496-.697-.709-1.046-1.614-1.046-2.713 0-.946.256-1.761.767-2.445.518-.684 1.244-1.211 2.177-1.582.94-.371 2.039-.556 3.298-.556 1.86 0 3.324.393 4.392 1.179s1.7 1.857 1.879 3.212zm36.741-4.2v3.068h-8.869v-3.068h8.869zm-6.856-3.528h4.085v13.73c0 .377.057.671.173.882.115.205.274.348.479.431a1.98 1.98 0 0 0 .729.125c.191 0 .383-.016.575-.048l.441-.086.642 3.039a11.27 11.27 0 0 1-.863.221c-.37.089-.821.144-1.351.163-.985.038-1.848-.093-2.589-.393-.735-.3-1.307-.767-1.717-1.4s-.61-1.432-.604-2.397V22.744zm43.35 3.528v3.068h-8.869v-3.068h8.869zm-6.855-3.528h4.084v13.73c0 .377.058.671.173.882a.95.95 0 0 0 .479.431 1.98 1.98 0 0 0 .729.125c.192 0 .383-.016.575-.048l.441-.086.643 3.039c-.205.064-.493.138-.863.221a6.93 6.93 0 0 1-1.352.163c-.985.038-1.848-.093-2.589-.393-.735-.3-1.307-.767-1.716-1.4s-.611-1.432-.604-2.397V22.744zM244.837 41l-4.008-14.727h4.133l2.282 9.895h.134l2.378-9.895h4.055l2.417 9.837h.124l2.244-9.837h4.123L258.72 41h-4.324l-2.531-9.262h-.182L249.152 41h-4.315zm46.061 0V26.273h4.084V41h-4.084zm2.051-16.626c-.607 0-1.128-.201-1.562-.604-.429-.409-.643-.898-.643-1.467 0-.562.214-1.045.643-1.448.434-.409.955-.614 1.562-.614a2.17 2.17 0 0 1 1.554.614c.434.403.652.885.652 1.448 0 .569-.218 1.058-.652 1.467-.429.403-.946.604-1.554.604zm37.959 16.913c-1.508 0-2.806-.32-3.893-.959-1.08-.646-1.911-1.54-2.493-2.685-.575-1.144-.862-2.461-.862-3.95 0-1.508.29-2.832.872-3.969.588-1.144 1.422-2.036 2.503-2.675 1.08-.646 2.365-.968 3.854-.968 1.285 0 2.41.233 3.375.7s1.729 1.122 2.291 1.966.873 1.835.931 2.972h-3.855c-.109-.735-.396-1.326-.863-1.774-.46-.454-1.064-.681-1.812-.681-.633 0-1.186.173-1.659.518-.466.339-.831.834-1.093 1.486s-.393 1.441-.393 2.368c0 .94.128 1.739.384 2.397.262.658.629 1.16 1.102 1.505s1.026.518 1.659.518a2.69 2.69 0 0 0 1.256-.288 2.43 2.43 0 0 0 .93-.834c.249-.371.412-.815.489-1.333h3.855c-.064 1.125-.371 2.116-.921 2.972-.543.85-1.294 1.515-2.253 1.994s-2.094.719-3.404.719z" class="F"/><defs ><path id="B" d="M10 41a1 1 0 0 1 1-1h6a1 1 0 0 1 1 1v6a1 1 0 0 1-1 1h-6a1 1 0 0 1-1-1v-6z"/></defs></svg>